<svg width="94" height="93" viewBox="0 0 94 93" fill="none" xmlns="http://www.w3.org/2000/svg">
<circle cx="47" cy="46.5" r="46" fill="white" stroke="#37786E"/>
<path d="M49.5543 29.939C50.2856 30.049 50.9153 30.6557 51.0525 31.3822C51.5999 31.3998 52.0483 31.7971 52.4768 32.1381C52.9054 32.4791 53.4501 32.799 53.9724 32.6335L53.7735 31.1327C53.7291 30.797 53.6811 30.4511 53.5099 30.159C53.2653 29.7423 52.8121 29.5021 52.3818 29.2825C51.8705 29.022 51.35 28.758 50.7855 28.6551C50.2209 28.5521 49.5957 28.6313 49.1539 28.9974C48.9441 29.1716 48.7804 29.4845 48.9361 29.7084C49.0655 29.8959 49.3299 29.9051 49.5543 29.939ZM54.9787 30.3966C55.4305 30.4375 55.8411 30.7741 55.97 31.2088C55.9885 31.2713 56.0008 31.3426 55.9678 31.3993C55.9238 31.475 55.8217 31.4891 55.7346 31.486C55.5931 31.4837 55.4539 31.4508 55.3263 31.3897C55.1578 31.3041 55.0255 31.1612 54.9531 30.9866C54.8823 30.8114 54.8766 30.6166 54.9369 30.4375M58.5915 47.7555C58.0969 47.6494 57.5623 47.1729 57.2825 46.7721C57.0981 46.5076 56.9705 46.204 56.7633 45.9567C56.5341 45.6835 56.2208 45.4947 55.9049 45.3293C54.5242 44.6096 52.9919 44.2292 51.4349 44.2196C50.4145 44.2135 48.8767 44.0753 48.2898 43.014C48.1925 42.8385 48.2797 42.6242 48.3197 42.4271C48.3597 42.2299 48.2911 41.9607 48.0905 41.9505C47.7077 41.9312 47.6188 42.3879 47.1365 42.332C46.7881 42.2915 46.3168 42.0328 46.1989 41.6879C46.0915 41.3737 46.2011 40.6715 46.2244 40.3375C46.2675 39.7197 48.6638 39.7585 49.0972 39.7945C49.0158 40.2662 49.4923 41.0032 50.0199 40.5742C50.477 40.2029 49.9107 39.1768 50.3089 38.6637C50.8286 37.9932 51.4956 37.3239 52.0817 36.6947C52.2467 36.5174 52.4126 36.3397 52.6018 36.1887C53.0149 35.8601 53.5209 35.6744 53.9772 35.4086C53.0858 34.0297 51.4697 33.1497 49.828 33.1492C49.7013 33.1492 49.5627 33.1585 49.4694 33.2443C49.3467 33.3569 49.3537 33.5492 49.3713 33.7146C49.4193 34.1705 49.4756 34.6259 49.5403 35.0795L48.1367 34.522C47.7895 34.3843 47.4252 34.2334 47.199 33.9359C46.9733 33.6385 46.9588 33.147 47.2685 32.9389C47.705 32.6454 48.3677 33.1061 48.7989 32.8056C49.0585 32.6243 49.1258 32.2243 49.4184 32.1033C49.6802 31.9955 49.9635 32.1715 50.2403 32.2331C50.5166 32.2947 50.9078 32.0717 50.774 31.8217C50.0155 31.3162 49.1495 30.7873 48.255 30.9642C47.8049 31.0531 47.408 31.3149 46.9693 31.4491C45.9111 31.7733 44.7865 31.3276 43.7701 30.8894C43.6152 30.8225 43.4551 30.7525 43.3411 30.628C43.2117 30.4868 43.1572 30.2923 43.0467 30.1357C42.6965 29.6398 41.3932 29.6411 41.4786 29.6169C41.369 29.6077 41.1569 29.8549 41.0474 29.8453C40.9515 29.8369 39.9769 30.8339 39.7987 30.9536C39.2016 31.3558 38.5293 31.5208 37.8019 31.7355C37.0869 31.9467 36.2743 32.762 37.387 32.817C38.2987 32.8619 39.6253 32.5359 40.5128 32.3317C40.6765 32.2943 40.8551 32.2538 41.006 32.3273C41.1539 32.399 41.2335 32.5596 41.2964 32.7114C41.851 34.0619 41.9205 35.5628 41.4931 36.9587C41.347 37.4304 41.1429 37.9285 41.2867 38.4011C41.4944 39.0822 42.3515 39.4377 42.4796 40.1382C42.5346 40.4396 42.4422 40.7678 42.5671 41.0472C42.8606 41.7024 43.756 41.4093 44.2616 41.2923C44.2589 41.2932 44.3364 42.3122 44.4059 42.424C44.6514 42.8178 45.2938 42.9181 45.6986 43.0312C47.1915 43.4487 48.5049 44.0837 49.8505 44.851C50.1761 45.0367 50.5166 45.2365 50.7063 45.5603C51.2145 46.4271 50.3727 47.4532 50.2641 48.452C50.235 48.736 50.2669 49.023 50.3575 49.2938C50.4481 49.5646 50.5953 49.8129 50.7894 50.0223C51.0107 50.2582 51.2875 50.4373 51.5075 50.6753C52.0201 51.2297 52.1635 52.0446 52.0826 52.7957C52.0021 53.5467 51.7257 54.26 51.4943 54.9789C51.0614 56.3251 50.781 57.7155 50.6583 59.1242C50.6218 59.5435 50.8471 59.6526 51.2228 59.5373C51.7583 59.3737 51.6619 58.8681 51.7975 58.4695C52.1869 57.3211 53.4259 56.2981 54.4823 55.7978C54.9518 55.5756 55.4671 55.4071 55.8314 55.037C56.3453 54.5152 56.4579 53.6933 56.9736 53.1727C57.4127 52.7292 58.0793 52.5721 58.5224 52.1321C59.0029 51.6547 59.1705 50.9551 59.4825 50.3735C59.7175 49.9357 60.1671 49.5779 60.3656 49.1375C60.9591 47.8179 59.3553 47.9191 58.5915 47.7555Z" fill="#37786E"/>
<path d="M47.5 26.1475C35.9975 26.1475 26.673 35.4719 26.673 46.9744C26.673 58.4769 35.9975 67.8014 47.5 67.8014C59.0025 67.8014 68.327 58.4769 68.327 46.9744C68.327 35.4719 59.0025 26.1475 47.5 26.1475ZM54.445 64.7262C53.9526 64.5313 53.4105 64.4627 52.89 64.5612C52.1248 64.706 51.3218 65.1627 50.6214 64.8217C49.9275 64.4842 49.7876 63.4788 50.1668 62.8065C50.5461 62.1342 51.2787 61.7435 52.0043 61.4808C51.511 61.0817 50.7556 61.2669 50.2443 61.6431C49.733 62.0189 49.3515 62.5522 48.8306 62.9143C48.3096 63.2764 47.5352 63.4203 47.075 62.9834C47.0596 63.3437 46.6385 63.5501 46.2777 63.5488C45.9169 63.5475 45.5592 63.4203 45.2019 63.4683C44.7192 63.5325 44.3258 63.9122 44.112 64.3496C43.9114 64.7605 43.8427 65.2208 43.7842 65.6753C35.0436 63.9413 28.433 56.2166 28.433 46.9744C28.433 36.4606 36.9866 27.9075 47.5 27.9075C51.3064 27.9075 54.8524 29.033 57.8321 30.9624C57.7744 31.2633 57.7533 31.5665 57.8048 31.8692C57.9227 32.5662 58.5537 33.2301 59.2515 33.1153L59.3791 32.6089C60.26 32.7862 61.0106 33.4981 61.2342 34.3684C61.102 34.4564 60.9977 34.5804 60.9339 34.7257C60.87 34.8711 60.8492 35.0317 60.8738 35.1886C61.9448 35.3897 62.6347 36.4897 62.816 37.5641C62.9972 38.6386 62.8058 39.7377 62.8182 40.8276C62.8375 42.5414 63.5301 44.4251 65.0921 45.1304C65.5264 45.3266 66.0447 45.4049 66.4856 45.2562C66.5366 45.8229 66.567 46.3954 66.567 46.9749C66.567 55.0379 61.5329 61.9432 54.445 64.7262Z" fill="#37786E"/>
</svg>
