<svg width="93" height="93" viewBox="0 0 93 93" fill="none" xmlns="http://www.w3.org/2000/svg">
<circle cx="46.5" cy="46.5" r="46" fill="white" stroke="#37786E"/>
<path fill-rule="evenodd" clip-rule="evenodd" d="M36.644 29.0028C33.1508 29.0028 30.1797 30.2738 28.0969 32.5915C26.0332 34.8842 25 38.0243 25 41.4995C25 47.536 28.034 52.3459 31.888 56.0869C35.7256 59.8112 40.5527 62.644 44.5488 64.7623C44.8408 64.9175 45.1655 64.999 45.4952 65C45.825 65.001 46.1501 64.9213 46.443 64.7678C50.4419 62.6717 55.2662 59.8168 59.1065 56.073C62.9605 52.321 66 47.4945 66 41.4995C66 38.0105 64.9613 34.8732 62.8949 32.5804C60.8094 30.2682 57.8383 29 54.356 29C51.4149 29 48.9823 30.1049 47.1318 32.1872C46.4996 32.909 45.952 33.7025 45.5 34.5519C45.048 33.7025 44.5004 32.909 43.8682 32.1872C42.0177 30.1049 39.5851 29.0028 36.644 29.0028Z" fill="#37786E"/>
</svg>
