<svg width="93" height="93" viewBox="0 0 93 93" fill="none" xmlns="http://www.w3.org/2000/svg">
<circle cx="46.5" cy="46.5" r="46" fill="white" stroke="#37786E"/>
<g clip-path="url(#clip0_4_476)">
<path d="M40.2809 67.8458C37.8915 70.1204 33.7211 68.8262 31.0671 65.7682C27.5432 61.708 26.2675 54.0183 27.4035 47.1609L40.2809 67.8458ZM43.0589 65.2237C41.5119 64.5579 35.2968 61.309 37.7576 49.7756C33.8153 47.1516 28.158 45.1781 27.7959 44.7501C27.7959 44.7501 27.8107 45.4439 27.6294 46.8042L41.0083 67.0296C41.3406 66.3663 42.2219 65.8369 43.0589 65.2237ZM38.8335 58.3849C40.1527 62.7833 42.4867 63.3033 44.2072 64.3911L61.6772 26.5462L61.8838 26.5462L45.6643 65.648C47.3092 67.2184 49.5035 68.7973 52.7967 68.0458C66.3725 65.5903 69.472 43.4121 62.1284 25C53.4924 30.9979 47.0295 34.2321 42.8132 40.5817C39.534 45.5202 36.99 52.4751 38.8335 58.3849Z" fill="#37786E"/>
</g>
<defs>
<clipPath id="clip0_4_476">
<rect width="39" height="44" fill="white" transform="translate(27 25)"/>
</clipPath>
</defs>
</svg>
