<svg width="907" height="622" viewBox="0 0 907 622" fill="none" xmlns="http://www.w3.org/2000/svg">
<path fill-rule="evenodd" clip-rule="evenodd" d="M38.2132 549.9C36.2119 556.682 31.3113 561.101 27.265 559.775C23.2185 558.448 21.5597 551.876 23.5604 545.096C25.5609 538.315 30.4618 533.895 34.5081 535.222C38.554 536.549 40.2126 543.121 38.2132 549.9Z" fill="#FFEDCD"/>
<path fill-rule="evenodd" clip-rule="evenodd" d="M66.6856 576.224C60.4755 579.112 56.8604 584.721 58.6084 588.755C60.3562 592.789 66.8057 593.718 73.0151 590.831C79.224 587.944 82.8395 582.334 81.0916 578.301C79.3435 574.268 72.8936 573.338 66.6856 576.224Z" fill="#FFEDCD"/>
<path fill-rule="evenodd" clip-rule="evenodd" d="M58.7402 551.518C55.417 557.7 49.7265 560.943 46.0296 558.762C42.3337 556.581 42.0314 549.801 45.3543 543.619C48.6776 537.437 54.3682 534.194 58.0645 536.375C61.761 538.556 62.0636 545.336 58.7402 551.518Z" fill="#FFEDCD"/>
<path fill-rule="evenodd" clip-rule="evenodd" d="M62.6016 555.091C57.1217 559.278 54.7188 565.563 57.2374 569.131C59.7554 572.7 66.2403 572.199 71.7209 568.013C77.2018 563.827 79.6035 557.541 77.0848 553.973C74.5663 550.405 68.082 550.905 62.6016 555.091Z" fill="#FFEDCD"/>
<path fill-rule="evenodd" clip-rule="evenodd" d="M40.0267 565.307C38.1188 565.961 30.8006 567.199 27.0737 566.483C23.3471 565.768 18.4365 565.226 14.5726 570.837C10.7076 576.45 13.9332 583.366 17.4536 586.274C20.9733 589.183 27.8412 594.395 31.8063 599.221C35.7713 604.046 41.8874 608.828 47.4053 605.136C52.9232 601.444 52.6037 595.544 51.7868 591.608C50.9692 587.674 51.6012 578.751 52.4787 575.197C53.3555 571.645 51.0572 561.528 40.0267 565.307Z" fill="#FFEDCD"/>
<path fill-rule="evenodd" clip-rule="evenodd" d="M134.762 554.939C133.39 561.876 128.911 566.716 124.757 565.752C120.602 564.789 118.344 558.386 119.716 551.45C121.087 544.514 125.565 539.674 129.72 540.637C133.875 541.602 136.132 548.005 134.762 554.939Z" fill="#FFEDCD"/>
<path fill-rule="evenodd" clip-rule="evenodd" d="M165.337 578.403C159.413 581.832 156.325 587.743 158.438 591.609C160.55 595.474 167.064 595.829 172.988 592.401C178.911 588.972 181.999 583.061 179.887 579.195C177.774 575.331 171.26 574.976 165.337 578.403Z" fill="#FFEDCD"/>
<path fill-rule="evenodd" clip-rule="evenodd" d="M155.354 554.613C152.609 561.071 147.233 564.81 143.347 562.963C139.461 561.116 138.537 554.383 141.282 547.925C144.027 541.467 149.403 537.728 153.289 539.575C157.175 541.422 158.1 548.154 155.354 554.613Z" fill="#FFEDCD"/>
<path fill-rule="evenodd" clip-rule="evenodd" d="M159.441 557.733C154.362 562.393 152.544 568.873 155.383 572.207C158.222 575.542 164.642 574.467 169.721 569.807C174.802 565.148 176.618 558.667 173.779 555.333C170.94 551.999 164.521 553.073 159.441 557.733Z" fill="#FFEDCD"/>
<path fill-rule="evenodd" clip-rule="evenodd" d="M137.805 570.093C135.966 570.913 128.797 572.793 125.022 572.411C121.248 572.029 116.311 571.924 112.981 577.851C109.649 583.778 113.494 590.375 117.264 592.958C121.033 595.541 128.346 600.119 132.735 604.571C137.123 609.022 143.648 613.238 148.801 609.076C153.953 604.914 153.094 599.07 151.92 595.226C150.746 591.382 150.556 582.447 151.104 578.833C151.65 575.22 148.435 565.355 137.805 570.093Z" fill="#FFEDCD"/>
<path fill-rule="evenodd" clip-rule="evenodd" d="M117.921 438.908C116.069 445.732 111.267 450.256 107.191 449.015C103.115 447.775 101.311 441.238 103.162 434.416C105.012 427.592 109.815 423.068 113.891 424.309C117.966 425.55 119.77 432.086 117.921 438.908Z" fill="#FFEDCD"/>
<path fill-rule="evenodd" clip-rule="evenodd" d="M146.919 464.563C140.773 467.583 137.282 473.268 139.119 477.265C140.956 481.261 147.426 482.053 153.571 479.035C159.716 476.015 163.207 470.329 161.37 466.333C159.533 462.337 153.063 461.545 146.919 464.563Z" fill="#FFEDCD"/>
<path fill-rule="evenodd" clip-rule="evenodd" d="M138.478 440.059C135.292 446.312 129.673 449.677 125.927 447.574C122.183 445.472 121.731 438.698 124.917 432.445C128.104 426.192 133.723 422.828 137.468 424.93C141.213 427.033 141.665 433.806 138.478 440.059Z" fill="#FFEDCD"/>
<path fill-rule="evenodd" clip-rule="evenodd" d="M142.396 443.525C137.009 447.829 134.745 454.165 137.342 457.68C139.939 461.195 146.414 460.556 151.802 456.254C157.191 451.951 159.453 445.613 156.856 442.098C154.258 438.584 147.785 439.222 142.396 443.525Z" fill="#FFEDCD"/>
<path fill-rule="evenodd" clip-rule="evenodd" d="M120.03 454.265C118.137 454.96 110.849 456.353 107.108 455.717C103.367 455.081 98.4467 454.643 94.7085 460.335C90.9692 466.027 94.3462 472.872 97.9294 475.704C101.512 478.537 108.492 483.6 112.562 488.34C116.632 493.079 122.851 497.728 128.285 493.921C133.719 490.113 133.27 484.222 132.366 480.306C131.462 476.39 131.896 467.457 132.695 463.887C133.493 460.318 130.972 450.253 120.03 454.265Z" fill="#FFEDCD"/>
<path fill-rule="evenodd" clip-rule="evenodd" d="M222.477 462.404C220.064 469.052 214.904 473.174 210.949 471.613C206.994 470.052 205.742 463.398 208.154 456.751C210.566 450.104 215.726 445.982 219.681 447.543C223.636 449.105 224.888 455.758 222.477 462.404Z" fill="#FFEDCD"/>
<path fill-rule="evenodd" clip-rule="evenodd" d="M249.421 490.514C243.048 493.031 239.098 498.415 240.594 502.542C242.09 506.668 248.467 507.974 254.839 505.458C261.21 502.942 265.161 497.558 263.665 493.432C262.168 489.306 255.791 488 249.421 490.514Z" fill="#FFEDCD"/>
<path fill-rule="evenodd" clip-rule="evenodd" d="M242.867 465.307C239.173 471.278 233.298 474.179 229.745 471.787C226.192 469.395 226.307 462.615 230 456.644C233.694 450.673 239.569 447.772 243.121 450.164C246.674 452.557 246.56 459.336 242.867 465.307Z" fill="#FFEDCD"/>
<path fill-rule="evenodd" clip-rule="evenodd" d="M246.562 469.17C240.84 473.025 238.058 479.153 240.351 482.859C242.643 486.566 249.142 486.447 254.865 482.594C260.588 478.74 263.369 472.611 261.076 468.904C258.783 465.198 252.285 465.316 246.562 469.17Z" fill="#FFEDCD"/>
<path fill-rule="evenodd" clip-rule="evenodd" d="M223.468 477.911C221.523 478.453 214.138 479.259 210.46 478.325C206.782 477.392 201.911 476.562 197.707 481.94C193.503 487.318 196.299 494.415 199.636 497.526C202.973 500.638 209.512 506.246 213.176 511.299C216.839 516.351 222.654 521.485 228.391 518.122C234.129 514.76 234.172 508.848 233.598 504.87C233.023 500.892 234.202 492.017 235.297 488.52C236.39 485.024 234.716 474.785 223.468 477.911Z" fill="#FFEDCD"/>
<path fill-rule="evenodd" clip-rule="evenodd" d="M205.305 329.828C202.892 336.476 197.732 340.598 193.777 339.037C189.821 337.476 188.57 330.822 190.982 324.175C193.393 317.528 198.554 313.406 202.509 314.967C206.464 316.528 207.715 323.182 205.305 329.828Z" fill="#FFEDCD"/>
<path fill-rule="evenodd" clip-rule="evenodd" d="M232.248 357.939C225.876 360.455 221.925 365.839 223.422 369.966C224.918 374.092 231.295 375.398 237.667 372.882C244.038 370.366 247.989 364.982 246.493 360.856C244.996 356.73 238.619 355.424 232.248 357.939Z" fill="#FFEDCD"/>
<path fill-rule="evenodd" clip-rule="evenodd" d="M225.694 332.731C222.001 338.702 216.126 341.603 212.573 339.211C209.02 336.819 209.135 330.039 212.828 324.068C216.522 318.097 222.396 315.196 225.949 317.589C229.502 319.981 229.388 326.76 225.694 332.731Z" fill="#FFEDCD"/>
<path fill-rule="evenodd" clip-rule="evenodd" d="M229.39 336.594C223.667 340.449 220.885 346.577 223.179 350.283C225.471 353.991 231.97 353.871 237.693 350.018C243.416 346.164 246.197 340.035 243.904 336.328C241.611 332.622 235.113 332.74 229.39 336.594Z" fill="#FFEDCD"/>
<path fill-rule="evenodd" clip-rule="evenodd" d="M206.296 345.335C204.35 345.876 196.966 346.683 193.288 345.749C189.61 344.816 184.739 343.986 180.535 349.363C176.331 354.742 179.127 361.839 182.464 364.95C185.801 368.062 192.34 373.67 196.003 378.723C199.667 383.775 205.481 388.909 211.219 385.546C216.956 382.184 217 376.272 216.426 372.294C215.851 368.316 217.03 359.441 218.124 355.944C219.218 352.448 217.544 342.209 206.296 345.335Z" fill="#FFEDCD"/>
<path fill-rule="evenodd" clip-rule="evenodd" d="M323.22 342.966C320.808 349.615 315.647 353.736 311.692 352.175C307.737 350.614 306.485 343.961 308.897 337.313C311.309 330.666 316.469 326.544 320.424 328.105C324.379 329.667 325.631 336.32 323.22 342.966Z" fill="#FFEDCD"/>
<path fill-rule="evenodd" clip-rule="evenodd" d="M350.163 371.077C343.791 373.594 339.84 378.977 341.337 383.104C342.833 387.231 349.21 388.536 355.582 386.021C361.953 383.504 365.904 378.12 364.408 373.994C362.911 369.868 356.534 368.562 350.163 371.077Z" fill="#FFEDCD"/>
<path fill-rule="evenodd" clip-rule="evenodd" d="M343.61 345.869C339.916 351.841 334.042 354.741 330.488 352.35C326.936 349.957 327.05 343.177 330.743 337.206C334.437 331.235 340.312 328.334 343.865 330.727C347.418 333.119 347.303 339.898 343.61 345.869Z" fill="#FFEDCD"/>
<path fill-rule="evenodd" clip-rule="evenodd" d="M347.305 349.733C341.583 353.587 338.8 359.715 341.094 363.421C343.386 367.129 349.885 367.009 355.608 363.156C361.331 359.302 364.112 353.174 361.819 349.467C359.526 345.76 353.028 345.879 347.305 349.733Z" fill="#FFEDCD"/>
<path fill-rule="evenodd" clip-rule="evenodd" d="M324.211 358.474C322.266 359.015 314.881 359.821 311.203 358.888C307.525 357.954 302.654 357.124 298.45 362.502C294.246 367.88 297.042 374.977 300.38 378.088C303.716 381.2 310.255 386.809 313.919 391.861C317.582 396.913 323.397 402.048 329.134 398.685C334.872 395.322 334.915 389.411 334.341 385.432C333.766 381.454 334.945 372.58 336.04 369.083C337.134 365.587 335.46 355.347 324.211 358.474Z" fill="#FFEDCD"/>
<path fill-rule="evenodd" clip-rule="evenodd" d="M310.627 223.528C308.215 230.177 303.054 234.298 299.099 232.737C295.144 231.176 293.892 224.523 296.304 217.876C298.716 211.228 303.876 207.106 307.831 208.667C311.786 210.229 313.038 216.882 310.627 223.528Z" fill="#FFEDCD"/>
<path fill-rule="evenodd" clip-rule="evenodd" d="M337.571 251.639C331.198 254.156 327.248 259.539 328.744 263.666C330.24 267.793 336.617 269.099 342.989 266.583C349.36 264.066 353.311 258.683 351.815 254.556C350.319 250.43 343.941 249.124 337.571 251.639Z" fill="#FFEDCD"/>
<path fill-rule="evenodd" clip-rule="evenodd" d="M331.017 226.432C327.323 232.403 321.449 235.304 317.895 232.912C314.343 230.519 314.457 223.739 318.15 217.768C321.844 211.798 327.719 208.897 331.271 211.289C334.825 213.681 334.71 220.461 331.017 226.432Z" fill="#FFEDCD"/>
<path fill-rule="evenodd" clip-rule="evenodd" d="M334.712 230.295C328.99 234.149 326.208 240.278 328.501 243.984C330.793 247.691 337.292 247.572 343.015 243.718C348.738 239.865 351.519 233.736 349.226 230.029C346.933 226.322 340.435 226.441 334.712 230.295Z" fill="#FFEDCD"/>
<path fill-rule="evenodd" clip-rule="evenodd" d="M311.618 239.036C309.673 239.577 302.288 240.384 298.61 239.45C294.932 238.516 290.061 237.686 285.857 243.064C281.653 248.442 284.449 255.539 287.787 258.65C291.123 261.763 297.662 267.371 301.326 272.423C304.989 277.476 310.804 282.61 316.541 279.247C322.279 275.884 322.322 269.973 321.748 265.994C321.173 262.016 322.352 253.142 323.447 249.645C324.541 246.149 322.867 235.909 311.618 239.036Z" fill="#FFEDCD"/>
<path fill-rule="evenodd" clip-rule="evenodd" d="M411.641 276.596C408.61 282.989 403.085 286.62 399.299 284.707C395.512 282.795 394.899 276.062 397.929 269.67C400.959 263.277 406.484 259.646 410.27 261.558C414.056 263.471 414.669 270.204 411.641 276.596Z" fill="#FFEDCD"/>
<path fill-rule="evenodd" clip-rule="evenodd" d="M436.022 307.275C429.444 309.199 425.003 314.194 426.1 318.436C427.196 322.677 433.416 324.556 439.993 322.633C446.57 320.709 451.011 315.713 449.915 311.472C448.818 307.232 442.597 305.352 436.022 307.275Z" fill="#FFEDCD"/>
<path fill-rule="evenodd" clip-rule="evenodd" d="M431.672 281.47C427.432 287.072 421.315 289.422 418.009 286.72C414.703 284.018 415.46 277.287 419.699 271.686C423.939 266.084 430.056 263.734 433.362 266.436C436.668 269.137 435.912 275.868 431.672 281.47Z" fill="#FFEDCD"/>
<path fill-rule="evenodd" clip-rule="evenodd" d="M435.08 285.757C429.024 289.069 425.676 294.91 427.605 298.803C429.533 302.698 436.006 303.171 442.063 299.859C448.12 296.548 451.467 290.706 449.538 286.812C447.61 282.917 441.137 282.445 435.08 285.757Z" fill="#FFEDCD"/>
<path fill-rule="evenodd" clip-rule="evenodd" d="M411.352 292.149C409.361 292.511 401.926 292.641 398.35 291.376C394.774 290.111 389.999 288.84 385.3 293.815C380.599 298.791 382.711 306.117 385.74 309.521C388.769 312.926 394.751 319.11 397.921 324.479C401.091 329.847 406.397 335.492 412.434 332.664C418.471 329.836 419.076 323.95 418.882 319.933C418.687 315.917 420.706 307.182 422.129 303.797C423.552 300.414 422.857 290.058 411.352 292.149Z" fill="#FFEDCD"/>
<path fill-rule="evenodd" clip-rule="evenodd" d="M435.908 168.659C430.229 172.715 423.703 173.111 421.326 169.544C418.949 165.977 421.623 159.798 427.301 155.743C432.978 151.687 439.505 151.291 441.882 154.857C444.258 158.424 441.583 164.603 435.908 168.659Z" fill="#FFEDCD"/>
<path fill-rule="evenodd" clip-rule="evenodd" d="M442.85 207.95C436.222 206.329 429.985 208.459 428.917 212.708C427.848 216.957 432.354 221.714 438.982 223.335C445.61 224.955 451.847 222.825 452.915 218.577C453.982 214.329 449.476 209.571 442.85 207.95Z" fill="#FFEDCD"/>
<path fill-rule="evenodd" clip-rule="evenodd" d="M451.071 183.153C444.722 185.909 438.293 184.893 436.709 180.882C435.127 176.872 438.99 171.386 445.338 168.63C451.686 165.873 458.115 166.89 459.698 170.9C461.281 174.911 457.419 180.396 451.071 183.153Z" fill="#FFEDCD"/>
<path fill-rule="evenodd" clip-rule="evenodd" d="M452.139 188.735C445.305 188.587 439.617 191.999 439.436 196.357C439.255 200.717 444.649 204.372 451.484 204.52C458.319 204.67 464.006 201.257 464.187 196.897C464.368 192.538 458.974 188.883 452.139 188.735Z" fill="#FFEDCD"/>
<path fill-rule="evenodd" clip-rule="evenodd" d="M428.504 182.051C426.599 181.367 420.063 177.741 417.554 174.836C415.045 171.93 411.496 168.417 405.027 170.405C398.558 172.393 396.897 179.865 397.909 184.366C398.919 188.868 401.173 197.287 401.369 203.577C401.565 209.867 403.487 217.475 410.094 218.037C416.7 218.6 420.039 213.755 421.789 210.144C423.537 206.533 429.467 199.907 432.323 197.662C435.178 195.417 439.519 186.01 428.504 182.051Z" fill="#FFEDCD"/>
<path fill-rule="evenodd" clip-rule="evenodd" d="M530.927 245.099C525.248 249.155 518.722 249.551 516.345 245.984C513.968 242.418 516.643 236.239 522.32 232.183C527.997 228.127 534.524 227.731 536.901 231.298C539.277 234.864 536.602 241.043 530.927 245.099Z" fill="#FFEDCD"/>
<path fill-rule="evenodd" clip-rule="evenodd" d="M537.869 284.39C531.241 282.77 525.004 284.9 523.936 289.148C522.867 293.397 527.373 298.154 534.001 299.775C540.629 301.396 546.866 299.266 547.934 295.017C549.002 290.769 544.495 286.011 537.869 284.39Z" fill="#FFEDCD"/>
<path fill-rule="evenodd" clip-rule="evenodd" d="M546.09 259.593C539.741 262.35 533.312 261.333 531.728 257.323C530.146 253.313 534.009 247.827 540.357 245.07C546.705 242.314 553.134 243.33 554.717 247.341C556.3 251.351 552.438 256.837 546.09 259.593Z" fill="#FFEDCD"/>
<path fill-rule="evenodd" clip-rule="evenodd" d="M547.158 265.175C540.324 265.027 534.636 268.439 534.455 272.798C534.274 277.157 539.668 280.812 546.503 280.961C553.338 281.11 559.025 277.697 559.206 273.338C559.387 268.978 553.993 265.324 547.158 265.175Z" fill="#FFEDCD"/>
<path fill-rule="evenodd" clip-rule="evenodd" d="M523.523 258.491C521.618 257.807 515.082 254.182 512.573 251.276C510.064 248.37 506.515 244.857 500.046 246.845C493.577 248.834 491.916 256.305 492.928 260.806C493.938 265.308 496.192 273.727 496.388 280.018C496.584 286.308 498.506 293.915 505.113 294.478C511.719 295.04 515.058 290.195 516.808 286.584C518.556 282.973 524.486 276.347 527.342 274.102C530.197 271.858 534.538 262.45 523.523 258.491Z" fill="#FFEDCD"/>
<path fill-rule="evenodd" clip-rule="evenodd" d="M608.205 178.111C600.722 179.184 594.024 176.176 593.24 171.391C592.457 166.606 597.885 161.856 605.367 160.783C612.848 159.709 619.546 162.717 620.33 167.502C621.113 172.287 615.684 177.036 608.205 178.111Z" fill="#FFEDCD"/>
<path fill-rule="evenodd" clip-rule="evenodd" d="M596.752 220.789C590.852 215.723 583.671 214.59 580.708 218.258C577.746 221.925 580.125 229.004 586.024 234.07C591.923 239.135 599.105 240.268 602.067 236.601C605.029 232.934 602.649 225.854 596.752 220.789Z" fill="#FFEDCD"/>
<path fill-rule="evenodd" clip-rule="evenodd" d="M616.641 200.159C609.069 199.593 603.101 195.234 603.308 190.423C603.517 185.612 609.824 182.17 617.395 182.736C624.966 183.302 630.935 187.661 630.727 192.472C630.519 197.283 624.212 200.725 616.641 200.159Z" fill="#FFEDCD"/>
<path fill-rule="evenodd" clip-rule="evenodd" d="M614.887 206.267C608.126 202.561 600.922 202.99 598.797 207.229C596.67 211.468 600.428 217.911 607.189 221.619C613.95 225.326 621.154 224.896 623.28 220.656C625.406 216.417 621.649 209.974 614.887 206.267Z" fill="#FFEDCD"/>
<path fill-rule="evenodd" clip-rule="evenodd" d="M594.391 187.917C592.791 186.242 587.873 179.223 586.661 175.022C585.449 170.822 583.466 165.473 576.111 164.076C568.755 162.678 563.76 169.246 562.762 174.253C561.764 179.26 560.261 188.814 557.65 195.176C555.039 201.538 553.567 210.111 559.922 214.119C566.277 218.126 571.778 215.048 575.139 212.367C578.499 209.687 587.386 206.188 591.243 205.445C595.1 204.701 603.639 197.605 594.391 187.917Z" fill="#FFEDCD"/>
<path fill-rule="evenodd" clip-rule="evenodd" d="M649.417 296.354C641.935 297.427 635.237 294.419 634.453 289.634C633.669 284.849 639.098 280.1 646.579 279.026C654.061 277.952 660.759 280.961 661.543 285.746C662.326 290.53 656.897 295.28 649.417 296.354Z" fill="#FFEDCD"/>
<path fill-rule="evenodd" clip-rule="evenodd" d="M637.965 339.032C632.065 333.966 624.884 332.833 621.921 336.501C618.959 340.168 621.338 347.247 627.237 352.313C633.136 357.379 640.318 358.511 643.28 354.844C646.241 351.177 643.862 344.098 637.965 339.032Z" fill="#FFEDCD"/>
<path fill-rule="evenodd" clip-rule="evenodd" d="M657.854 318.402C650.282 317.837 644.314 313.478 644.521 308.666C644.73 303.855 651.037 300.414 658.608 300.979C666.179 301.545 672.148 305.904 671.94 310.715C671.732 315.527 665.425 318.968 657.854 318.402Z" fill="#FFEDCD"/>
<path fill-rule="evenodd" clip-rule="evenodd" d="M656.1 324.51C649.339 320.804 642.135 321.233 640.009 325.472C637.883 329.712 641.641 336.154 648.402 339.862C655.163 343.57 662.367 343.139 664.493 338.899C666.619 334.66 662.862 328.218 656.1 324.51Z" fill="#FFEDCD"/>
<path fill-rule="evenodd" clip-rule="evenodd" d="M635.604 306.161C634.004 304.485 629.086 297.467 627.874 293.266C626.661 289.065 624.679 283.716 617.324 282.319C609.967 280.921 604.973 287.489 603.975 292.496C602.977 297.504 601.474 307.057 598.863 313.419C596.252 319.781 594.78 328.354 601.135 332.362C607.49 336.37 612.991 333.291 616.352 330.611C619.712 327.93 628.599 324.432 632.456 323.688C636.312 322.944 644.852 315.849 635.604 306.161Z" fill="#FFEDCD"/>
<path fill-rule="evenodd" clip-rule="evenodd" d="M712.196 176.991C707.587 183.329 700.837 186.159 697.115 183.315C693.392 180.471 694.109 173.028 698.717 166.691C703.324 160.353 710.075 157.523 713.797 160.367C717.518 163.212 716.801 170.655 712.196 176.991Z" fill="#FFEDCD"/>
<path fill-rule="evenodd" clip-rule="evenodd" d="M732.845 215.709C725.3 216.471 719.447 221.005 719.767 225.837C720.087 230.669 726.461 233.968 734.005 233.207C741.548 232.445 747.402 227.911 747.082 223.08C746.761 218.248 740.387 214.948 732.845 215.709Z" fill="#FFEDCD"/>
<path fill-rule="evenodd" clip-rule="evenodd" d="M733.032 186.575C727.276 191.804 720.148 193.122 717.111 189.519C714.075 185.917 716.281 178.757 722.036 173.528C727.793 168.299 734.921 166.981 737.957 170.584C740.993 174.187 738.788 181.346 733.032 186.575Z" fill="#FFEDCD"/>
<path fill-rule="evenodd" clip-rule="evenodd" d="M736.037 192.105C728.778 194.48 723.941 200.149 725.236 204.768C726.53 209.389 733.465 211.209 740.725 208.835C747.985 206.461 752.821 200.791 751.526 196.171C750.231 191.55 743.297 189.73 736.037 192.105Z" fill="#FFEDCD"/>
<path fill-rule="evenodd" clip-rule="evenodd" d="M709.028 193.873C706.784 193.864 698.655 192.5 695.018 190.396C691.382 188.292 686.441 185.939 680.294 190.41C674.145 194.882 674.937 203.297 677.537 207.622C680.135 211.947 685.38 219.901 687.729 226.396C690.077 232.89 694.696 240.12 701.857 238.261C709.019 236.401 710.891 230.107 711.508 225.689C712.123 221.271 716.124 212.158 718.372 208.756C720.62 205.355 721.997 193.926 709.028 193.873Z" fill="#FFEDCD"/>
<path fill-rule="evenodd" clip-rule="evenodd" d="M743.34 276.622C738.456 282.744 731.59 285.265 728 282.254C724.411 279.244 725.458 271.841 730.341 265.72C735.223 259.599 742.09 257.078 745.679 260.088C749.268 263.099 748.22 270.501 743.34 276.622Z" fill="#FFEDCD"/>
<path fill-rule="evenodd" clip-rule="evenodd" d="M762.318 316.284C754.751 316.703 748.705 320.966 748.809 325.807C748.914 330.649 755.13 334.234 762.696 333.817C770.262 333.398 776.309 329.135 776.204 324.294C776.099 319.453 769.882 315.867 762.318 316.284Z" fill="#FFEDCD"/>
<path fill-rule="evenodd" clip-rule="evenodd" d="M763.739 287.177C757.759 292.139 750.584 293.131 747.713 289.395C744.842 285.659 747.363 278.608 753.343 273.647C759.323 268.686 766.498 267.693 769.369 271.429C772.24 275.165 769.719 282.216 763.739 287.177Z" fill="#FFEDCD"/>
<path fill-rule="evenodd" clip-rule="evenodd" d="M766.527 292.858C759.174 294.901 754.092 300.343 755.179 305.016C756.265 309.69 763.108 311.823 770.462 309.781C777.816 307.74 782.897 302.296 781.81 297.623C780.723 292.949 773.881 290.816 766.527 292.858Z" fill="#FFEDCD"/>
<path fill-rule="evenodd" clip-rule="evenodd" d="M739.476 293.33C737.236 293.219 729.176 291.486 725.638 289.218C722.099 286.95 717.268 284.373 710.929 288.563C704.588 292.752 705.003 301.198 707.407 305.639C709.811 310.08 714.695 318.268 716.751 324.866C718.807 331.463 723.098 338.899 730.335 337.366C737.571 335.833 739.722 329.628 740.535 325.24C741.347 320.853 745.749 311.927 748.146 308.629C750.543 305.333 752.428 293.972 739.476 293.33Z" fill="#FFEDCD"/>
<path fill-rule="evenodd" clip-rule="evenodd" d="M834.14 200.585C830.655 207.606 824.464 211.518 820.31 209.327C816.156 207.135 815.612 199.668 819.097 192.648C822.581 185.628 828.772 181.715 832.926 183.907C837.08 186.099 837.623 193.566 834.14 200.585Z" fill="#FFEDCD"/>
<path fill-rule="evenodd" clip-rule="evenodd" d="M860.572 235.082C853.249 237.084 848.23 242.529 849.359 247.247C850.488 251.965 857.337 254.166 864.659 252.165C871.98 250.163 876.999 244.718 875.871 240C874.742 235.283 867.892 233.081 860.572 235.082Z" fill="#FFEDCD"/>
<path fill-rule="evenodd" clip-rule="evenodd" d="M856.23 206.4C851.422 212.519 844.602 215.003 840.995 211.947C837.39 208.891 838.364 201.452 843.171 195.333C847.979 189.213 854.8 186.73 858.405 189.786C862.012 192.842 861.038 200.28 856.23 206.4Z" fill="#FFEDCD"/>
<path fill-rule="evenodd" clip-rule="evenodd" d="M859.939 211.233C853.167 214.782 849.341 221.184 851.398 225.533C853.454 229.883 860.613 230.533 867.386 226.984C874.159 223.436 877.983 217.033 875.927 212.683C873.87 208.334 866.712 207.684 859.939 211.233Z" fill="#FFEDCD"/>
<path fill-rule="evenodd" clip-rule="evenodd" d="M833.547 217.805C831.335 218.167 823.097 218.167 819.161 216.696C815.226 215.225 809.963 213.724 804.656 219.143C799.348 224.563 801.54 232.719 804.826 236.549C808.112 240.38 814.614 247.346 818.017 253.354C821.419 259.362 827.182 265.719 833.926 262.704C840.67 259.689 841.459 253.181 841.326 248.728C841.191 244.276 843.604 234.64 845.249 230.918C846.893 227.198 846.333 215.714 833.547 217.805Z" fill="#FFEDCD"/>
<path fill-rule="evenodd" clip-rule="evenodd" d="M787.72 99.1103C785.46 106.61 780.004 111.475 775.531 109.981C771.057 108.487 769.262 101.198 771.521 93.7C773.78 86.2016 779.236 81.3355 783.71 82.8297C788.182 84.3244 789.978 91.6134 787.72 99.1103Z" fill="#FFEDCD"/>
<path fill-rule="evenodd" clip-rule="evenodd" d="M819.104 128.457C812.207 131.619 808.168 137.809 810.078 142.288C811.988 146.766 819.126 147.835 826.022 144.675C832.917 141.514 836.957 135.323 835.047 130.845C833.137 126.367 825.999 125.299 819.104 128.457Z" fill="#FFEDCD"/>
<path fill-rule="evenodd" clip-rule="evenodd" d="M810.447 101.035C806.727 107.862 800.403 111.42 796.322 108.982C792.243 106.544 791.951 99.0323 795.671 92.2059C799.391 85.379 805.715 81.8212 809.795 84.2595C813.875 86.6975 814.167 94.2081 810.447 101.035Z" fill="#FFEDCD"/>
<path fill-rule="evenodd" clip-rule="evenodd" d="M814.707 105.024C808.611 109.628 805.909 116.575 808.676 120.542C811.442 124.51 818.628 123.994 824.725 119.391C830.822 114.788 833.522 107.84 830.755 103.873C827.989 99.9051 820.804 100.42 814.707 105.024Z" fill="#FFEDCD"/>
<path fill-rule="evenodd" clip-rule="evenodd" d="M789.643 116.189C787.525 116.902 779.411 118.23 775.287 117.414C771.164 116.599 765.728 115.969 761.412 122.161C757.095 128.355 760.624 136.036 764.505 139.279C768.385 142.523 775.959 148.337 780.321 153.707C784.682 159.076 791.427 164.41 797.563 160.354C803.698 156.298 803.382 149.76 802.502 145.395C801.622 141.032 802.378 131.151 803.373 127.221C804.367 123.291 801.886 112.07 789.643 116.189Z" fill="#FFEDCD"/>
<path fill-rule="evenodd" clip-rule="evenodd" d="M842.221 24.2222C841.188 31.9892 836.573 37.6488 831.911 36.8673C827.248 36.0858 824.305 29.1576 825.338 21.392C826.37 13.6263 830.985 7.96602 835.648 8.74777C840.31 9.52999 843.253 16.4582 842.221 24.2222Z" fill="#FFEDCD"/>
<path fill-rule="evenodd" clip-rule="evenodd" d="M877.545 47.9068C871.232 52.1053 868.229 58.8549 870.836 62.9861C873.442 67.1172 880.67 67.0637 886.983 62.8665C893.294 58.6688 896.297 51.9187 893.691 47.7879C891.085 43.6576 883.855 43.711 877.545 47.9068Z" fill="#FFEDCD"/>
<path fill-rule="evenodd" clip-rule="evenodd" d="M864.973 22.3748C862.387 29.7078 856.701 34.2113 852.273 32.4348C847.846 30.6572 846.353 23.2716 848.939 15.9392C851.525 8.60645 857.211 4.10266 861.639 5.88C866.067 7.65696 867.559 15.0419 864.973 22.3748Z" fill="#FFEDCD"/>
<path fill-rule="evenodd" clip-rule="evenodd" d="M869.657 25.4755C864.363 30.9788 862.804 38.272 866.178 41.7659C869.55 45.2612 876.577 43.6329 881.871 38.1302C887.166 32.6275 888.724 25.3338 885.35 21.8393C881.977 18.3447 874.95 19.9723 869.657 25.4755Z" fill="#FFEDCD"/>
<path fill-rule="evenodd" clip-rule="evenodd" d="M846.53 40.7363C844.556 41.7681 836.765 44.3356 832.568 44.1712C828.371 44.0069 822.91 44.2286 819.643 51.0056C816.375 57.7835 821.083 64.8113 825.428 67.4072C829.774 70.0044 838.173 74.5638 843.332 79.1829C848.491 83.8017 855.995 88.0153 861.398 83.0633C866.801 78.1114 865.444 71.713 863.879 67.5449C862.313 63.3781 861.481 53.5163 861.834 49.4856C862.186 45.4562 857.946 34.7745 846.53 40.7363Z" fill="#FFEDCD"/>
</svg>
