<svg width="1431" height="877" viewBox="0 0 1431 877" fill="none" xmlns="http://www.w3.org/2000/svg">
<path fill-rule="evenodd" clip-rule="evenodd" d="M116.016 740.542C113.772 750.419 106.373 757.468 99.4857 756.293C92.5981 755.118 88.8319 746.161 91.0745 736.286C93.3168 726.412 100.717 719.361 107.604 720.537C114.491 721.713 118.257 730.67 116.016 740.542Z" fill="#F6F8F8"/>
<path fill-rule="evenodd" clip-rule="evenodd" d="M167.038 772.615C157.238 777.735 152.147 786.238 155.663 791.611C159.179 796.984 169.972 797.191 179.772 792.073C189.57 786.954 194.662 778.451 191.146 773.078C187.629 767.706 176.836 767.499 167.038 772.615Z" fill="#F6F8F8"/>
<path fill-rule="evenodd" clip-rule="evenodd" d="M150.146 739.274C145.626 748.534 136.738 754.064 130.294 751.629C123.85 749.192 122.291 739.71 126.811 730.452C131.331 721.193 140.219 715.662 146.663 718.098C153.107 720.534 154.666 730.015 150.146 739.274Z" fill="#F6F8F8"/>
<path fill-rule="evenodd" clip-rule="evenodd" d="M157.04 743.607C148.647 750.429 145.663 759.676 150.379 764.263C155.094 768.852 165.723 767.041 174.117 760.221C182.511 753.4 185.494 744.152 180.777 739.564C176.061 734.976 165.434 736.786 157.04 743.607Z" fill="#F6F8F8"/>
<path fill-rule="evenodd" clip-rule="evenodd" d="M121.343 761.886C118.297 763.131 106.414 766.118 100.152 765.748C93.8899 765.377 85.7015 765.453 80.2023 773.998C74.7014 782.545 81.1054 791.715 87.3695 795.202C93.6326 798.691 105.781 804.844 113.079 810.951C120.376 817.057 131.216 822.734 139.745 816.604C148.274 810.475 146.825 802.238 144.861 796.845C142.897 791.455 142.545 778.806 143.438 773.663C144.33 768.521 138.956 754.694 121.343 761.886Z" fill="#F6F8F8"/>
<path fill-rule="evenodd" clip-rule="evenodd" d="M291.714 758.952C288.522 768.659 280.483 775.192 273.756 773.549C267.029 771.905 264.162 762.705 267.354 753C270.545 743.294 278.584 736.76 285.311 738.404C292.037 740.048 294.904 749.248 291.714 758.952Z" fill="#F6F8F8"/>
<path fill-rule="evenodd" clip-rule="evenodd" d="M339.633 794.775C329.398 799.218 323.51 807.359 326.479 812.964C329.447 818.569 340.148 819.512 350.383 815.071C360.616 810.63 366.504 802.488 363.535 796.883C360.567 791.28 349.865 790.336 339.633 794.775Z" fill="#F6F8F8"/>
<path fill-rule="evenodd" clip-rule="evenodd" d="M325.776 760.176C320.384 769.109 311.018 774.023 304.856 771.152C298.695 768.28 298.072 758.71 303.464 749.778C308.856 740.845 318.222 735.931 324.383 738.802C330.545 741.674 331.168 751.243 325.776 760.176Z" fill="#F6F8F8"/>
<path fill-rule="evenodd" clip-rule="evenodd" d="M332.349 765.101C323.349 771.337 319.483 780.363 323.719 785.263C327.954 790.165 338.685 789.083 347.686 782.849C356.688 776.614 360.552 767.587 356.316 762.686C352.08 757.785 341.35 758.866 332.349 765.101Z" fill="#F6F8F8"/>
<path fill-rule="evenodd" clip-rule="evenodd" d="M295.211 780.664C292.059 781.7 279.945 783.875 273.751 783.076C267.558 782.278 259.405 781.793 253.098 789.962C246.79 798.132 252.265 807.739 258.156 811.654C264.045 815.57 275.529 822.554 282.192 829.158C288.855 835.762 299.085 842.18 308.169 836.635C317.253 831.089 316.616 822.753 315.19 817.228C313.763 811.703 314.649 799.032 316.04 793.951C317.43 788.871 313.435 774.677 295.211 780.664Z" fill="#F6F8F8"/>
<path fill-rule="evenodd" clip-rule="evenodd" d="M247.437 574.55C244.244 584.258 236.206 590.791 229.479 589.148C222.752 587.504 219.885 578.304 223.076 568.598C226.268 558.893 234.307 552.359 241.034 554.002C247.76 555.647 250.627 564.847 247.437 574.55Z" fill="#F6F8F8"/>
<path fill-rule="evenodd" clip-rule="evenodd" d="M295.356 610.373C285.121 614.816 279.233 622.957 282.202 628.562C285.17 634.167 295.871 635.11 306.105 630.669C316.339 626.228 322.227 618.086 319.258 612.481C316.289 606.878 305.588 605.934 295.356 610.373Z" fill="#F6F8F8"/>
<path fill-rule="evenodd" clip-rule="evenodd" d="M281.499 575.775C276.107 584.708 266.741 589.621 260.579 586.751C254.418 583.879 253.795 574.308 259.187 565.376C264.579 556.443 273.945 551.529 280.106 554.401C286.268 557.272 286.891 566.841 281.499 575.775Z" fill="#F6F8F8"/>
<path fill-rule="evenodd" clip-rule="evenodd" d="M288.072 580.699C279.072 586.935 275.206 595.961 279.442 600.862C283.676 605.763 294.408 604.682 303.409 598.447C312.41 592.212 316.274 583.185 312.039 578.284C307.803 573.383 297.073 574.464 288.072 580.699Z" fill="#F6F8F8"/>
<path fill-rule="evenodd" clip-rule="evenodd" d="M250.934 596.262C247.782 597.299 235.668 599.473 229.474 598.675C223.281 597.876 215.127 597.392 208.821 605.56C202.513 613.73 207.988 623.337 213.878 627.252C219.768 631.169 231.252 638.152 237.915 644.757C244.578 651.361 254.807 657.778 263.891 652.233C272.975 646.688 272.339 638.352 270.913 632.826C269.486 627.302 270.372 614.631 271.763 609.549C273.153 604.469 269.158 590.276 250.934 596.262Z" fill="#F6F8F8"/>
<path fill-rule="evenodd" clip-rule="evenodd" d="M443.983 576.487C440.79 586.194 432.752 592.727 426.025 591.084C419.297 589.44 416.43 580.241 419.622 570.535C422.814 560.829 430.852 554.295 437.579 555.939C444.306 557.583 447.172 566.783 443.983 576.487Z" fill="#F6F8F8"/>
<path fill-rule="evenodd" clip-rule="evenodd" d="M491.901 612.31C481.666 616.752 475.779 624.893 478.747 630.498C481.715 636.103 492.416 637.046 502.651 632.606C512.884 628.164 518.772 620.022 515.803 614.418C512.835 608.814 502.133 607.87 491.901 612.31Z" fill="#F6F8F8"/>
<path fill-rule="evenodd" clip-rule="evenodd" d="M478.044 577.711C472.652 586.645 463.286 591.558 457.124 588.687C450.964 585.816 450.34 576.245 455.732 567.313C461.124 558.38 470.49 553.466 476.651 556.338C482.813 559.209 483.436 568.778 478.044 577.711Z" fill="#F6F8F8"/>
<path fill-rule="evenodd" clip-rule="evenodd" d="M484.617 582.636C475.617 588.871 471.751 597.898 475.987 602.798C480.222 607.7 490.953 606.618 499.954 600.383C508.956 594.148 512.82 585.121 508.584 580.22C504.348 575.319 493.618 576.4 484.617 582.636Z" fill="#F6F8F8"/>
<path fill-rule="evenodd" clip-rule="evenodd" d="M447.479 598.199C444.327 599.236 432.213 601.41 426.019 600.612C419.826 599.813 411.673 599.329 405.367 607.497C399.058 615.667 404.533 625.274 410.424 629.189C416.313 633.106 427.797 640.089 434.46 646.694C441.123 653.298 451.353 659.715 460.437 654.17C469.521 648.625 468.884 640.289 467.458 634.763C466.031 629.239 466.917 616.568 468.308 611.486C469.698 606.406 465.704 592.213 447.479 598.199Z" fill="#F6F8F8"/>
<path fill-rule="evenodd" clip-rule="evenodd" d="M408.851 409.955C405.658 419.662 397.62 426.196 390.893 424.552C384.166 422.909 381.299 413.709 384.49 404.003C387.682 394.297 395.721 387.763 402.448 389.407C409.174 391.051 412.04 400.251 408.851 409.955Z" fill="#F6F8F8"/>
<path fill-rule="evenodd" clip-rule="evenodd" d="M456.77 445.778C446.535 450.22 440.647 458.361 443.616 463.966C446.584 469.571 457.285 470.514 467.519 466.074C477.753 461.632 483.641 453.49 480.672 447.886C477.703 442.282 467.002 441.339 456.77 445.778Z" fill="#F6F8F8"/>
<path fill-rule="evenodd" clip-rule="evenodd" d="M442.913 411.179C437.521 420.112 428.155 425.026 421.993 422.155C415.832 419.283 415.209 409.713 420.601 400.781C425.993 391.848 435.359 386.934 441.52 389.806C447.681 392.677 448.305 402.246 442.913 411.179Z" fill="#F6F8F8"/>
<path fill-rule="evenodd" clip-rule="evenodd" d="M449.486 416.104C440.486 422.339 436.62 431.366 440.856 436.266C445.09 441.168 455.821 440.086 464.823 433.851C473.824 427.617 477.688 418.59 473.452 413.689C469.217 408.788 458.487 409.868 449.486 416.104Z" fill="#F6F8F8"/>
<path fill-rule="evenodd" clip-rule="evenodd" d="M412.348 431.667C409.196 432.703 397.082 434.878 390.888 434.079C384.695 433.281 376.541 432.796 370.235 440.965C363.927 449.134 369.402 458.742 375.292 462.657C381.182 466.573 392.666 473.557 399.329 480.161C405.992 486.765 416.221 493.183 425.305 487.638C434.389 482.092 433.753 473.756 432.327 468.231C430.9 462.706 431.786 450.035 433.177 444.954C434.567 439.874 430.572 425.68 412.348 431.667Z" fill="#F6F8F8"/>
<path fill-rule="evenodd" clip-rule="evenodd" d="M582.233 470.532C577.988 479.967 569.288 485.86 562.798 483.697C556.308 481.534 554.487 472.134 558.731 462.699C562.976 453.265 571.676 447.372 578.165 449.535C584.655 451.698 586.476 461.099 582.233 470.532Z" fill="#F6F8F8"/>
<path fill-rule="evenodd" clip-rule="evenodd" d="M626.223 510.334C615.577 513.97 608.832 521.634 611.154 527.456C613.475 533.278 623.985 535.051 634.63 531.417C645.274 527.782 652.019 520.117 649.698 514.296C647.376 508.475 636.865 506.701 626.223 510.334Z" fill="#F6F8F8"/>
<path fill-rule="evenodd" clip-rule="evenodd" d="M615.939 474.584C609.6 483.073 599.767 487.245 593.976 483.903C588.187 480.56 588.632 470.968 594.97 462.48C601.309 453.991 611.142 449.818 616.933 453.161C622.723 456.503 622.278 466.094 615.939 474.584Z" fill="#F6F8F8"/>
<path fill-rule="evenodd" clip-rule="evenodd" d="M622.088 480.145C612.471 485.664 607.635 494.365 611.291 499.581C614.945 504.798 625.706 504.554 635.324 499.036C644.942 493.518 649.777 484.817 646.121 479.6C642.466 474.383 631.706 474.627 622.088 480.145Z" fill="#F6F8F8"/>
<path fill-rule="evenodd" clip-rule="evenodd" d="M583.619 492.488C580.372 493.278 568.094 494.508 562.029 493.227C555.964 491.947 547.917 490.827 540.742 498.499C533.565 506.171 537.935 516.198 543.352 520.569C548.768 524.941 559.401 532.814 565.286 539.933C571.171 547.052 580.62 554.261 590.263 549.428C599.906 544.594 600.201 536.214 599.399 530.582C598.596 524.95 600.888 512.357 602.835 507.388C604.782 502.42 602.393 487.925 583.619 492.488Z" fill="#F6F8F8"/>
<path fill-rule="evenodd" clip-rule="evenodd" d="M609.427 315.022C600.524 321.536 589.78 323.012 585.422 318.32C581.065 313.629 584.747 304.545 593.648 298.032C602.549 291.519 613.295 290.043 617.652 294.735C622.008 299.427 618.326 308.51 609.427 315.022Z" fill="#F6F8F8"/>
<path fill-rule="evenodd" clip-rule="evenodd" d="M625.614 369.413C614.46 368.062 604.403 371.94 603.145 378.077C601.888 384.214 609.908 390.284 621.061 391.637C632.214 392.988 642.272 389.11 643.529 382.973C644.785 376.837 636.765 370.766 625.614 369.413Z" fill="#F6F8F8"/>
<path fill-rule="evenodd" clip-rule="evenodd" d="M636.236 333.315C626.069 338.092 615.317 337.564 612.218 332.135C609.121 326.707 614.851 318.433 625.017 313.657C635.183 308.88 645.936 309.409 649.033 314.837C652.132 320.266 646.402 328.539 636.236 333.315Z" fill="#F6F8F8"/>
<path fill-rule="evenodd" clip-rule="evenodd" d="M638.672 341.031C627.353 341.783 618.357 347.39 618.581 353.558C618.803 359.726 628.16 364.118 639.479 363.367C650.799 362.616 659.794 357.007 659.57 350.839C659.347 344.671 649.991 340.279 638.672 341.031Z" fill="#F6F8F8"/>
<path fill-rule="evenodd" clip-rule="evenodd" d="M598.79 334.935C595.558 334.239 584.317 330.049 579.82 326.307C575.324 322.565 569.033 318.114 558.576 321.825C548.117 325.536 546.266 336.297 548.478 342.498C550.688 348.7 555.424 360.246 556.502 369.083C557.579 377.919 561.669 388.368 572.66 388.232C583.652 388.096 588.591 380.8 591.052 375.465C593.511 370.131 602.522 359.961 606.975 356.396C611.426 352.832 617.478 338.964 598.79 334.935Z" fill="#F6F8F8"/>
<path fill-rule="evenodd" clip-rule="evenodd" d="M775.698 409.38C766.795 415.894 756.051 417.369 751.693 412.678C747.336 407.986 751.018 398.903 759.919 392.39C768.82 385.876 779.566 384.4 783.923 389.092C788.279 393.784 784.597 402.867 775.698 409.38Z" fill="#F6F8F8"/>
<path fill-rule="evenodd" clip-rule="evenodd" d="M791.886 463.77C780.731 462.418 770.674 466.296 769.416 472.433C768.159 478.57 776.18 484.641 787.332 485.993C798.485 487.345 808.543 483.466 809.8 477.33C811.057 471.193 803.036 465.122 791.886 463.77Z" fill="#F6F8F8"/>
<path fill-rule="evenodd" clip-rule="evenodd" d="M802.507 427.671C792.34 432.448 781.588 431.919 778.489 426.491C775.392 421.063 781.122 412.789 791.288 408.013C801.454 403.236 812.207 403.765 815.305 409.193C818.403 414.622 812.673 422.894 802.507 427.671Z" fill="#F6F8F8"/>
<path fill-rule="evenodd" clip-rule="evenodd" d="M804.943 435.388C793.624 436.14 784.628 441.747 784.852 447.914C785.074 454.083 794.431 458.474 805.75 457.723C817.07 456.973 826.065 451.364 825.841 445.196C825.618 439.027 816.262 434.636 804.943 435.388Z" fill="#F6F8F8"/>
<path fill-rule="evenodd" clip-rule="evenodd" d="M765.062 429.291C761.829 428.595 750.588 424.405 746.091 420.663C741.595 416.922 735.304 412.47 724.848 416.181C714.389 419.892 712.537 430.654 714.749 436.855C716.959 443.056 721.696 454.602 722.773 463.439C723.85 472.275 727.941 482.725 738.932 482.588C749.923 482.452 754.862 475.156 757.323 469.822C759.782 464.488 768.793 454.317 773.246 450.752C777.698 447.188 783.749 433.321 765.062 429.291Z" fill="#F6F8F8"/>
<path fill-rule="evenodd" clip-rule="evenodd" d="M895.45 304.12C883.206 306.685 871.771 303.388 869.902 296.755C868.033 290.123 876.44 282.667 888.681 280.103C900.923 277.538 912.359 280.835 914.228 287.467C916.096 294.1 907.688 301.555 895.45 304.12Z" fill="#F6F8F8"/>
<path fill-rule="evenodd" clip-rule="evenodd" d="M881.626 365.87C871.264 359.561 859.254 358.974 854.795 364.559C850.336 370.143 855.119 379.783 865.479 386.092C875.84 392.401 887.85 392.988 892.309 387.403C896.767 381.819 891.984 372.178 881.626 365.87Z" fill="#F6F8F8"/>
<path fill-rule="evenodd" clip-rule="evenodd" d="M912.041 334.003C899.454 334.27 889.062 328.967 888.829 322.158C888.598 315.349 898.614 309.613 911.2 309.346C923.787 309.079 934.179 314.382 934.411 321.191C934.643 328 924.628 333.736 912.041 334.003Z" fill="#F6F8F8"/>
<path fill-rule="evenodd" clip-rule="evenodd" d="M909.873 342.857C898.25 338.584 886.389 340.202 883.383 346.474C880.374 352.747 887.36 361.297 898.983 365.571C910.606 369.845 922.467 368.226 925.474 361.953C928.481 355.68 921.497 347.13 909.873 342.857Z" fill="#F6F8F8"/>
<path fill-rule="evenodd" clip-rule="evenodd" d="M873.784 319.881C870.938 317.745 861.966 308.546 859.458 302.797C856.95 297.048 853.032 289.79 840.703 288.855C828.371 287.919 820.899 297.876 819.85 305.072C818.799 312.269 817.459 325.942 813.904 335.274C810.348 344.605 808.941 356.893 819.93 361.647C830.918 366.401 839.644 361.29 844.881 357.04C850.116 352.791 864.391 346.612 870.68 345.021C876.967 343.431 890.237 332.232 873.784 319.881Z" fill="#F6F8F8"/>
<path fill-rule="evenodd" clip-rule="evenodd" d="M977.761 464.946C965.518 467.511 954.083 464.214 952.213 457.581C950.344 450.949 958.751 443.493 970.993 440.928C983.234 438.364 994.671 441.661 996.539 448.293C998.407 454.925 990 462.381 977.761 464.946Z" fill="#F6F8F8"/>
<path fill-rule="evenodd" clip-rule="evenodd" d="M963.938 526.696C953.575 520.386 941.566 519.8 937.106 525.384C932.647 530.969 937.43 540.609 947.791 546.918C958.151 553.227 970.162 553.814 974.621 548.229C979.078 542.645 974.295 533.004 963.938 526.696Z" fill="#F6F8F8"/>
<path fill-rule="evenodd" clip-rule="evenodd" d="M994.352 494.829C981.765 495.096 971.374 489.793 971.141 482.984C970.909 476.175 980.926 470.439 993.512 470.172C1006.1 469.905 1016.49 475.208 1016.72 482.017C1016.95 488.826 1006.94 494.562 994.352 494.829Z" fill="#F6F8F8"/>
<path fill-rule="evenodd" clip-rule="evenodd" d="M992.185 503.683C980.561 499.41 968.7 501.028 965.694 507.3C962.686 513.573 969.671 522.123 981.294 526.397C992.918 530.671 1004.78 529.052 1007.79 522.779C1010.79 516.506 1003.81 507.956 992.185 503.683Z" fill="#F6F8F8"/>
<path fill-rule="evenodd" clip-rule="evenodd" d="M956.096 480.707C953.249 478.571 944.277 469.372 941.769 463.623C939.262 457.874 935.343 450.616 923.014 449.681C910.683 448.745 903.21 458.702 902.162 465.898C901.11 473.095 899.771 486.768 896.215 496.1C892.66 505.431 891.252 517.719 902.241 522.473C913.23 527.227 921.956 522.116 927.192 517.866C932.427 513.617 946.702 507.438 952.991 505.847C959.278 504.257 972.549 493.058 956.096 480.707Z" fill="#F6F8F8"/>
<path fill-rule="evenodd" clip-rule="evenodd" d="M1067.26 287.923C1060.4 297.502 1049.58 302.439 1043.09 298.955C1036.59 295.47 1036.88 284.881 1043.74 275.304C1050.6 265.726 1061.43 260.788 1067.92 264.273C1074.41 267.758 1074.12 278.347 1067.26 287.923Z" fill="#F6F8F8"/>
<path fill-rule="evenodd" clip-rule="evenodd" d="M1106.05 339.579C1093.66 341.713 1084.53 348.924 1085.64 355.689C1086.74 362.453 1097.68 366.206 1110.06 364.073C1122.44 361.939 1131.58 354.727 1130.47 347.963C1129.36 341.2 1118.43 337.447 1106.05 339.579Z" fill="#F6F8F8"/>
<path fill-rule="evenodd" clip-rule="evenodd" d="M1102.87 298.499C1093.97 306.677 1082.35 309.536 1076.89 304.887C1071.44 300.237 1074.23 289.837 1083.12 281.661C1092.01 273.483 1103.64 270.624 1109.09 275.274C1114.54 279.924 1111.76 290.322 1102.87 298.499Z" fill="#F6F8F8"/>
<path fill-rule="evenodd" clip-rule="evenodd" d="M1108.5 305.869C1096.78 310.236 1089.46 318.904 1092.15 325.232C1094.85 331.561 1106.53 333.151 1118.25 328.784C1129.97 324.418 1137.29 315.749 1134.59 309.421C1131.9 303.092 1120.22 301.502 1108.5 305.869Z" fill="#F6F8F8"/>
<path fill-rule="evenodd" clip-rule="evenodd" d="M1064.05 312.157C1060.34 312.461 1046.73 311.681 1040.47 309.227C1034.2 306.774 1025.75 304.153 1016.12 311.318C1006.49 318.483 1008.81 330.23 1013.63 335.958C1018.44 341.689 1028.07 352.159 1032.73 360.981C1037.39 369.802 1045.89 379.341 1057.51 375.714C1069.13 372.086 1071.47 362.954 1071.96 356.641C1072.45 350.33 1077.97 336.925 1081.28 331.816C1084.59 326.708 1085.5 310.409 1064.05 312.157Z" fill="#F6F8F8"/>
<path fill-rule="evenodd" clip-rule="evenodd" d="M1130.7 423.937C1123.36 433.25 1112.3 437.767 1106.01 434.03C1099.71 430.292 1100.56 419.714 1107.9 410.403C1115.24 401.09 1126.29 396.573 1132.58 400.31C1138.88 404.048 1138.03 414.626 1130.7 423.937Z" fill="#F6F8F8"/>
<path fill-rule="evenodd" clip-rule="evenodd" d="M1166.83 477.159C1154.37 478.813 1144.88 485.669 1145.63 492.477C1146.39 499.285 1157.1 503.463 1169.56 501.811C1182.01 500.158 1191.5 493.301 1190.75 486.493C1190 479.687 1179.29 475.508 1166.83 477.159Z" fill="#F6F8F8"/>
<path fill-rule="evenodd" clip-rule="evenodd" d="M1165.69 435.944C1156.4 443.776 1144.65 446.183 1139.46 441.322C1134.26 436.461 1137.59 426.17 1146.88 418.339C1156.17 410.508 1167.92 408.1 1173.11 412.961C1178.31 417.823 1174.99 428.112 1165.69 435.944Z" fill="#F6F8F8"/>
<path fill-rule="evenodd" clip-rule="evenodd" d="M1170.98 443.557C1159.07 447.469 1151.32 455.852 1153.68 462.284C1156.03 468.717 1167.6 470.761 1179.52 466.85C1191.43 462.94 1199.18 454.555 1196.82 448.122C1194.47 441.689 1182.9 439.645 1170.98 443.557Z" fill="#F6F8F8"/>
<path fill-rule="evenodd" clip-rule="evenodd" d="M1126.31 448.024C1122.59 448.183 1109.06 446.874 1102.94 444.175C1096.81 441.476 1088.52 438.525 1078.54 445.32C1068.55 452.115 1070.25 463.958 1074.76 469.877C1079.27 475.798 1088.32 486.649 1092.51 495.657C1096.7 504.664 1104.69 514.539 1116.47 511.362C1128.25 508.184 1131.07 499.137 1131.88 492.84C1132.7 486.545 1138.91 473.347 1142.48 468.364C1146.05 463.382 1147.8 447.108 1126.31 448.024Z" fill="#F6F8F8"/>
<path fill-rule="evenodd" clip-rule="evenodd" d="M1271.73 304.027C1266.8 314.411 1257.04 320.794 1249.9 318.29C1242.77 315.786 1240.98 305.34 1245.9 294.959C1250.82 284.577 1260.59 278.192 1267.72 280.697C1274.85 283.202 1276.64 293.647 1271.73 304.027Z" fill="#F6F8F8"/>
<path fill-rule="evenodd" clip-rule="evenodd" d="M1319.56 348.921C1307.69 352.772 1300.05 361.151 1302.48 367.64C1304.91 374.129 1316.5 376.269 1328.37 372.42C1340.23 368.57 1347.88 360.19 1345.45 353.702C1343.02 347.214 1331.43 345.074 1319.56 348.921Z" fill="#F6F8F8"/>
<path fill-rule="evenodd" clip-rule="evenodd" d="M1308.95 309.115C1301.73 318.415 1290.75 322.873 1284.42 319.074C1278.09 315.274 1278.81 304.655 1286.03 295.357C1293.25 286.058 1304.23 281.599 1310.55 285.399C1316.88 289.198 1316.16 299.816 1308.95 309.115Z" fill="#F6F8F8"/>
<path fill-rule="evenodd" clip-rule="evenodd" d="M1315.66 315.405C1304.89 321.359 1299.33 330.917 1303.25 336.756C1307.17 342.597 1319.09 342.506 1329.86 336.553C1340.63 330.601 1346.19 321.041 1342.27 315.201C1338.35 309.361 1326.43 309.452 1315.66 315.405Z" fill="#F6F8F8"/>
<path fill-rule="evenodd" clip-rule="evenodd" d="M1272.81 328.376C1269.19 329.197 1255.57 330.355 1248.89 328.835C1242.2 327.315 1233.32 325.94 1225.2 334.323C1217.07 342.706 1221.67 353.891 1227.56 358.826C1233.46 363.762 1245.04 372.664 1251.39 380.652C1257.73 388.639 1268.02 396.787 1278.81 391.59C1289.6 386.394 1290.13 377.113 1289.37 370.856C1288.62 364.602 1291.45 350.684 1293.73 345.209C1296 339.735 1293.7 323.632 1272.81 328.376Z" fill="#F6F8F8"/>
<path fill-rule="evenodd" clip-rule="evenodd" d="M1182.81 167.563C1179.98 178.448 1171.54 186.071 1163.96 184.595C1156.39 183.119 1152.54 173.1 1155.38 162.216C1158.22 151.333 1166.66 143.709 1174.23 145.185C1181.81 146.663 1185.65 156.681 1182.81 167.563Z" fill="#F6F8F8"/>
<path fill-rule="evenodd" clip-rule="evenodd" d="M1238.22 204.504C1227.2 209.928 1221.26 219.219 1224.96 225.262C1228.65 231.304 1240.58 231.806 1251.6 226.384C1262.63 220.961 1268.57 211.669 1264.87 205.627C1261.18 199.586 1249.24 199.084 1238.22 204.504Z" fill="#F6F8F8"/>
<path fill-rule="evenodd" clip-rule="evenodd" d="M1220.62 167.08C1215.29 177.223 1205.26 183.125 1198.22 180.264C1191.18 177.401 1189.8 166.858 1195.13 156.715C1200.47 146.572 1210.5 140.67 1217.53 143.532C1224.57 146.394 1225.96 156.937 1220.62 167.08Z" fill="#F6F8F8"/>
<path fill-rule="evenodd" clip-rule="evenodd" d="M1228.14 172.101C1218.62 179.446 1214.98 189.615 1220.03 194.816C1225.08 200.019 1236.9 198.282 1246.43 190.938C1255.96 183.595 1259.59 173.425 1254.54 168.223C1249.49 163.021 1237.67 164.757 1228.14 172.101Z" fill="#F6F8F8"/>
<path fill-rule="evenodd" clip-rule="evenodd" d="M1188.04 191.359C1184.62 192.662 1171.36 195.672 1164.45 195.103C1157.53 194.534 1148.47 194.41 1142.07 203.743C1135.68 213.078 1142.43 223.405 1149.24 227.429C1156.04 231.454 1169.27 238.583 1177.12 245.536C1184.97 252.489 1196.77 259.056 1206.43 252.478C1216.08 245.9 1214.78 236.733 1212.8 230.706C1210.82 224.681 1210.89 210.652 1212.06 204.973C1213.24 199.297 1207.79 183.833 1188.04 191.359Z" fill="#F6F8F8"/>
<path fill-rule="evenodd" clip-rule="evenodd" d="M1263.96 54.374C1263.18 65.4638 1256.23 74.0877 1248.43 73.642C1240.62 73.1962 1234.93 63.8473 1235.7 52.7595C1236.48 41.6715 1243.43 33.0466 1251.24 33.4927C1259.04 33.9396 1264.73 43.2885 1263.96 54.374Z" fill="#F6F8F8"/>
<path fill-rule="evenodd" clip-rule="evenodd" d="M1325.2 82.783C1315.27 89.5867 1311.11 99.5198 1315.92 104.975C1320.72 110.43 1332.67 109.338 1342.6 102.536C1352.53 95.7338 1356.69 85.7999 1351.89 80.3455C1347.08 74.8919 1335.14 75.9834 1325.2 82.783Z" fill="#F6F8F8"/>
<path fill-rule="evenodd" clip-rule="evenodd" d="M1301.36 48.5727C1297.96 59.2694 1289.1 66.4147 1281.56 64.5339C1274.03 62.6515 1270.68 52.454 1274.07 41.7584C1277.47 31.062 1286.33 23.9162 1293.87 25.7983C1301.4 27.6797 1304.76 37.8761 1301.36 48.5727Z" fill="#F6F8F8"/>
<path fill-rule="evenodd" clip-rule="evenodd" d="M1309.47 52.2835C1301.38 60.7825 1299.68 71.2787 1305.67 75.7278C1311.67 80.1789 1323.09 76.8965 1331.19 68.3984C1339.28 59.9 1340.98 49.4034 1334.99 44.9534C1328.99 40.5034 1317.57 43.7846 1309.47 52.2835Z" fill="#F6F8F8"/>
<path fill-rule="evenodd" clip-rule="evenodd" d="M1273.06 77.0389C1269.92 78.7704 1257.35 83.4836 1250.39 83.8419C1243.43 84.2004 1234.42 85.2806 1229.83 95.2895C1225.24 105.3 1233.87 114.541 1241.37 117.588C1248.86 120.637 1263.3 125.881 1272.38 131.664C1281.46 137.448 1294.38 142.33 1302.72 134.593C1311.06 126.855 1308.05 118.03 1304.96 112.377C1301.87 106.725 1299.31 92.9457 1299.41 87.2163C1299.51 81.4889 1291.22 67.0331 1273.06 77.0389Z" fill="#F6F8F8"/>
</svg>
